<?xml version="1.0" encoding="UTF-8"?>
<svg id="Layer_1" data-name="Layer 1" xmlns="http://www.w3.org/2000/svg" viewBox="0 0 232.68 51.19">
  <defs>
    <style>
      .cls-1 {
        fill: #fff;
      }

      .cls-1, .cls-2 {
        fill-rule: evenodd;
      }

      .cls-3, .cls-2 {
        fill: #23c48c;
      }
    </style>
  </defs>
  <path class="cls-1" d="M46.26,22.05c-.29-2.27-1.52-3.89-3.61-4.79-1.88-.81-3.85-1.27-5.9-1.29-3.54-.03-7.09,0-10.63-.02-.23,0-.33.05-.38.3-.37,1.88-.76,3.76-1.13,5.64-.44,2.21-.88,4.42-1.33,6.63-.41,2.03-.82,4.06-1.23,6.1-.44,2.21-.88,4.42-1.32,6.63-.46,2.28-.91,4.56-1.38,6.84-.05.24.03.27.22.27,2.49,0,4.98,0,7.47,0,.17,0,.25-.05.28-.23.16-.85.34-1.69.51-2.54.37-1.86.74-3.72,1.11-5.57.37-1.87.75-3.74,1.12-5.61.13-.67.27-1.34.41-2,.02,0,.05,0,.07,0,.01.06.03.11.04.17.39,1.91.77,3.83,1.15,5.75.64,3.22,1.28,6.44,1.91,9.67.06.31.17.37.46.37,2.31,0,4.62,0,6.94,0,.28,0,.64.13.81-.08.1-.13-.08-.49-.13-.74-.01-.07-.03-.14-.05-.21-.59-2.45-1.19-4.89-1.79-7.33-.47-1.93-.93-3.87-1.42-5.79-.1-.38-.03-.53.33-.69,1.65-.76,3.25-1.65,4.57-2.94,2.38-2.35,3.32-5.22,2.91-8.53ZM37.84,24.77c-.02.79-.3,1.91-.84,2.98-.73,1.46-1.91,2.24-3.48,2.48-.77.12-1.55.18-2.33.22-.26.01-.32-.07-.27-.32.27-1.31.53-2.63.8-3.94.31-1.53.62-3.05.91-4.58.06-.32.17-.43.51-.42.8.03,1.61-.04,2.41.12,1.58.34,2.32,1.33,2.29,3.46Z"/>
  <path class="cls-1" d="M80.55,48.35h-8.82c-.41,0-.4,0-.32-.41.4-2.01.8-4.02,1.2-6.03.37-1.87.76-3.74,1.13-5.61.41-2.01.81-4.02,1.21-6.03.38-1.89.76-3.78,1.14-5.68.41-2.01.81-4.02,1.21-6.03.16-.78.31-1.55.46-2.33.04-.22.13-.29.36-.29,5.55,0,12.31,0,17.86,0,.26,0,.33.06.27.33-.4,1.92-.79,3.85-1.16,5.78-.06.28-.18.33-.43.33-2.87,0-6.96,0-9.83-.01-.27,0-.36.08-.42.34-.38,1.94-.77,3.88-1.17,5.82-.04.21.06.19.18.19h1.39c2,0,4,0,6.01,0,.27,0,.36.02.29.35-.39,1.83-.75,3.66-1.1,5.5-.06.28-.22.26-.41.26-2.41,0-4.81,0-7.22,0-.32,0-.43.08-.5.42-.39,2.04-.8,4.07-1.22,6.1-.12.58-.14.58.46.58,3.16,0,6.33,0,9.5,0,.34,0,.38.09.31.41-.35,1.67-.68,3.34-1.01,5-.02.13-.05.26-.08.39q-.15.64-.81.64h-8.5Z"/>
  <path class="cls-1" d="M12.49,15.95h10.78c.42,0,.42,0,.34.4-.37,1.86-.75,3.72-1.11,5.57-.06.3-.16.44-.5.44-2.13-.02-4.27,0-6.4-.01-.25,0-.37.06-.42.33-.32,1.67-.66,3.34-1,5.01-.38,1.88-.76,3.76-1.14,5.64-.4,2.01-.8,4.02-1.21,6.03-.38,1.89-.76,3.78-1.14,5.68-.19.96-.39,1.92-.57,2.89-.06.31-.15.44-.5.44-2.41-.02-4.81-.01-7.22,0-.29,0-.37-.07-.31-.36.49-2.38.97-4.77,1.45-7.15.41-2.02.8-4.05,1.21-6.07.45-2.23.91-4.46,1.36-6.7.36-1.8.72-3.6,1.09-5.39.06-.3-.08-.3-.3-.3-2.19,0-4.39,0-6.58,0-.29,0-.38-.03-.31-.37.39-1.85.75-3.71,1.11-5.57.07-.34.17-.51.58-.5,3.6.03,7.19.01,10.78.01Z"/>
  <path class="cls-1" d="M57.35,48.95c-2.27.11-4.53.06-6.7-.72-2.06-.74-3.65-2.02-4.42-4.16-.43-1.17-.51-2.38-.42-3.62.12-1.58.53-3.12.83-4.67.32-1.69.68-3.38,1.02-5.07.38-1.88.76-3.76,1.14-5.64.33-1.66.67-3.31,1-4.97.26-1.29.52-2.59.77-3.88.04-.18.11-.26.3-.26,2.53,0,5.05,0,7.57,0,.22,0,.26.09.22.28-.63,3.08-1.25,6.15-1.87,9.23-.48,2.37-.94,4.75-1.42,7.12-.33,1.66-.67,3.31-1,4.97-.13.65-.2,1.31-.17,1.97.09.53.16,1.06.19,1.59.17,1.5.5,2.96,1.1,4.34.47,1.07,1.02,2.09,1.72,3.02.09.14.26.26.14.47Z"/>
  <path class="cls-1" d="M144.19,17.2c-1.79-.79-3.66-1.27-5.6-1.3-3.64-.05-7.27-.01-10.9-.03-.33,0-.44.1-.51.44-.31,1.66-.65,3.31-.98,4.96-.67,3.31-1.34,6.62-2.01,9.92-.67,3.31-1.33,6.62-1.99,9.92-.45,2.26-.89,4.53-1.36,6.79-.07.32,0,.41.32.41,2.42,0,4.85,0,7.27,0,.26,0,.37-.09.41-.35.1-.59.25-1.18.36-1.77.56-2.77,1.11-5.54,1.67-8.31.37-1.83.73-3.65,1.1-5.5.13.11.12.24.14.36.27,1.38.54,2.75.81,4.13.73,3.68,1.46,7.35,2.17,11.03.06.31.18.41.49.41,2.46,0,4.91,0,7.37,0,.4,0,.43-.16.35-.48-1.12-4.6-2.24-9.21-3.38-13.81-.07-.29-.01-.4.25-.53.68-.33,1.35-.68,2.01-1.05,3.27-1.83,5.35-4.52,5.63-8.39.23-3.18-.81-5.62-3.63-6.87ZM137.88,28.61c-.84,1.15-2.05,1.48-3.33,1.69-.5.08-1.01.1-1.41.13-.79.02-.78.02-.65-.64.56-2.78,1.12-5.57,1.68-8.35.04-.18.02-.37.28-.37.98,0,1.97-.08,2.93.22,1.29.4,1.93,1.28,1.93,2.78,0,1.66-.44,3.19-1.43,4.54Z"/>
  <path class="cls-1" d="M122.84,22.63c-.12-2.37-1.29-4.17-3.4-5.28-1.73-.91-3.62-1.23-5.54-1.29-1.75-.05-3.51,0-5.26,0h0c-1.96,0-3.93,0-5.9-.02-.4,0-.54.12-.61.52-.25,1.42-.54,2.82-.83,4.24-.56,2.79-1.13,5.57-1.69,8.35-.6,2.99-1.19,5.99-1.79,8.99-.67,3.31-1.34,6.62-2.01,9.92-.07.32-.02.45.34.45,2.44,0,4.88,0,7.32,0,.29,0,.42-.08.48-.4.78-3.94,1.58-7.87,2.36-11.81.09-.44.21-.65.72-.64,2.35.05,4.69,0,7-.62,6.18-1.71,9.12-6.48,8.82-12.4ZM113.08,28.55c-1.16,1.52-2.79,1.92-4.58,1.91-1.15,0-1.13,0-.9-1.11.52-2.56,1.04-5.11,1.54-7.67.06-.35.2-.47.55-.45.79.04,1.58-.04,2.36.11,1.44.29,2.18,1.02,2.3,2.49.15,1.71-.21,3.33-1.26,4.72Z"/>
  <path class="cls-1" d="M188.26,15.88c2.67,0,5.34,0,8.01,0,.44,0,.66.01.53.59-.4,1.8-.75,3.62-1.1,5.43-.08.38-.33.3-.56.3-2.74,0-5.48.01-8.22,0-.47,0-.63.14-.71.58-.34,1.81-.72,3.62-1.09,5.43-.13.65-.14.65.49.65,2.29,0,4.57,0,6.85,0,.37,0,.53.02.43.49-.37,1.7-.7,3.41-1.02,5.12-.08.41-.22.58-.68.57-2.32-.03-4.64,0-6.96-.02-.38,0-.49.11-.57.49-.54,2.79-1.11,5.57-1.68,8.36-.27,1.36-.56,2.71-.81,4.07-.05.29-.16.38-.44.38-2.41,0-4.81-.01-7.22,0-.46,0-.36-.26-.31-.52.39-1.93.78-3.86,1.18-5.8.66-3.27,1.32-6.55,1.97-9.82.67-3.33,1.34-6.65,2.01-9.98.39-1.93.78-3.86,1.14-5.8.08-.42.23-.55.65-.54,2.7.02,5.41,0,8.11,0Z"/>
  <path class="cls-1" d="M221.52,15.88c3.55,0,7.09,0,10.64,0,.5,0,.58.13.48.6-.38,1.73-.74,3.48-1.06,5.22-.07.39-.24.48-.59.48-2.05-.01-4.11,0-6.16-.01-.35,0-.51.04-.59.45-.76,3.91-1.55,7.8-2.33,11.7-.88,4.35-1.76,8.7-2.64,13.05-.19.95-.2.95-1.18.95-2.16,0-4.32,0-6.48,0-.45,0-.52-.12-.43-.55.85-4.16,1.67-8.32,2.51-12.48.77-3.83,1.55-7.66,2.33-11.49.08-.4.12-.81.23-1.2.1-.35,0-.42-.33-.42-2.09.01-4.18,0-6.27,0-.62,0-.62,0-.49-.62.35-1.72.71-3.44,1.03-5.17.08-.43.25-.53.66-.53,3.56,0,7.13,0,10.69,0Z"/>
  <path class="cls-1" d="M197.26,48.32c-1.2,0-2.39,0-3.59,0-.33,0-.43-.09-.36-.43.83-4.04,1.64-8.08,2.46-12.12.71-3.52,1.4-7.04,2.1-10.56.59-2.96,1.19-5.92,1.78-8.88.07-.36.23-.47.6-.47,2.34.02,4.67.02,7.01,0,.43,0,.54.11.45.54-.68,3.29-1.34,6.58-2,9.87-.6,3-1.19,5.99-1.79,8.99-.6,3-1.2,5.99-1.81,8.99-.24,1.2-.49,2.4-.71,3.6-.06.35-.19.47-.55.47-1.18-.02-2.38,0-3.57,0Z"/>
  <path class="cls-1" d="M156.97,51.15c-1.83.15-3.73-.12-5.52-.95-3.24-1.5-5.02-4.45-4.8-8.03.08-1.3.45-2.55.7-3.83.59-3.02,1.2-6.03,1.82-9.04.49-2.38.8-4.81,1.5-7.14.98-3.26,3.21-5.54,6.08-7.2,2.3-1.33,4.78-1.98,7.44-1.97,1.92,0,3.83.03,5.64.8,2.52,1.06,4.33,2.8,5.08,5.52.37,1.33.32,2.68.05,4.02-.58,2.91-1.15,5.82-1.74,8.73-.56,2.77-1.2,5.52-1.68,8.3-.56,3.21-2.18,5.71-4.68,7.65-2.87,2.24-6.11,3.36-9.88,3.14Z"/>
  <path class="cls-3" d="M77.39,8.36c.47,1.03.94,2.07,1.42,3.1.11.25,0,.29-.21.29-.37,0-.74,0-1.11,0-.66,0-1.33,0-1.99-.02-.33,0-.44.1-.5.42-.18.99-.38,1.97-.58,2.95h0c-.03.17-.06.32-.09.47-.01.06-.04.11-.06.16v.03s-.02.02-.03.03h0c.02.39-.07.75-.16,1.12-.04.16-.08.31-.1.47-.22,1.16-.43,2.32-.68,3.47-.06.27-.11.55-.16.83-.1.55-.2,1.11-.38,1.64h0s0,0,0,0c-.02.43-.12.85-.22,1.27-.05.2-.09.4-.13.6-.18,1-.39,2.01-.59,3.01h0c-.08.38-.16.76-.23,1.14-.01.08-.04.16-.07.24-.01.03-.02.06-.04.1h0s0,0,0,0c-.05.53-.16,1.05-.28,1.57-.06.26-.11.52-.16.78-.12.66-.26,1.32-.39,1.98-.05.25-.1.51-.15.76-.01.05-.03.1-.05.15,0,.01-.01.03-.02.04,0,0,0,.01,0,.02,0,0,0,.02-.01.03h0s0,0,0,0c-.06.2-.09.4-.12.6-.03.17-.05.33-.1.49-.04.48-.15.95-.25,1.43-.04.18-.08.36-.12.54-.01.09-.03.18-.04.27-.05.32-.09.64-.22.94h0c-.06.55-.2,1.08-.43,1.59,0,0,0-.02,0-.02,0,0,0,.01,0,.02-.42,1.37-1.09,2.6-2.07,3.66h0c-.04.06-.09.11-.14.16-.05.05-.09.1-.14.15-.2.24-.41.46-.65.65-.13.21-.31.36-.5.51-1.94,1.54-4.15,2.43-6.56,2.82-.12.02-.25.04-.37.06-.45.07-.9.14-1.35.12-.07-.3-.26-.53-.44-.75-.08-.1-.17-.21-.24-.32-1.2-1.85-2-3.85-2.29-6.06-.03-.21-.05-.41-.06-.61v-.03s-.01-.07-.02-.11c-.03-.15-.06-.32.06-.37.1-.04.14.07.19.18.02.06.04.11.07.15.03.04.06.08.09.12.04.06.08.11.12.16.63.77,1.47,1,2.41.97,1,0,1.89-.33,2.68-.97h0c1.02-.94,1.59-2.12,1.83-3.48.01-.06.04-.12.06-.19.01-.03.02-.05.03-.08.09-.73.24-1.45.43-2.16h0s0,0,0,0c.06-.56.18-1.1.3-1.65.06-.29.13-.58.18-.87.01-.07.02-.14.03-.21.02-.15.03-.3.11-.45h0s.18-.92.18-.92h0c.21-1.08.42-2.15.64-3.22.05-.23.09-.46.13-.68.1-.53.2-1.07.36-1.59.06-.2.1-.42.13-.63.02-.13.04-.26.07-.39.03-.42.11-.82.2-1.23.04-.19.08-.38.12-.57.11-.59.24-1.18.37-1.77.06-.27.12-.55.18-.83v-.02s.02-.02.02-.02c.04-.21.07-.41.11-.62h0s0,0,0,0h0c.07-.38.13-.76.21-1.14.17-.83.34-1.66.51-2.48.27-1.3.56-2.6.84-3.91v-.04c.02-.25.02-.37-.03-.44-.06-.06-.18-.06-.43-.07h-.01c-.3,0-.59,0-.89,0-.59,0-1.18,0-1.78-.01-.02,0-.04,0-.06,0-.08,0-.15.02-.19-.07-.03-.07.03-.13.08-.18.01-.01.02-.02.03-.03.93-1.07,1.86-2.15,2.79-3.22.93-1.07,1.86-2.15,2.79-3.22.03-.03.06-.06.1-.09l.03-.02h0c.36-.42.72-.84,1.08-1.27.36-.42.72-.84,1.08-1.27.31-.36.62-.71.92-1.07.31-.36.62-.71.92-1.07.14-.17.24-.27.36.02.81,1.82,1.63,3.63,2.44,5.45.39.87.78,1.73,1.17,2.6.02.03.03.08.04.13Z"/>
  <path class="cls-2" d="M166.56,39.91c-.35,1-.99,1.55-1.71,2-1.7,1.04-3.57,1.46-5.52,1.56-1.94.09-3.82-.12-5.56-1.1-.81-.46-1.45-1.07-1.54-2.09,0-.11-.05-.22.05-.3.11-.08.2,0,.27.08,1.35,1.32,3.05,1.79,4.83,1.98,2.55.28,5.04-.02,7.42-1.08.57-.26,1.12-.56,1.75-1.04Z"/>
  <path class="cls-2" d="M155.74,23.94c1.01,1.02,2.25,1.6,3.6,1.89,3.61.76,7.05.34,10.25-1.61.07-.04.15-.09.3-.17-.26.89-.87,1.38-1.53,1.8-1.5.97-3.16,1.42-4.92,1.58-1.88.17-3.72.08-5.49-.63-.78-.31-1.46-.74-1.97-1.44-.31-.44-.4-.75-.24-1.43Z"/>
  <path class="cls-2" d="M154.58,29.16c2.43,2.19,5.3,2.42,8.26,2.19,1.8-.14,3.52-.62,5.1-1.53.24-.14.47-.3.78-.49-.11.62-.42,1.01-.82,1.34-1.04.87-2.25,1.38-3.53,1.69-2.18.53-4.37.6-6.56.02-.98-.26-1.88-.67-2.62-1.41-.49-.49-.66-1.06-.6-1.81Z"/>
  <path class="cls-2" d="M167.24,35.45c-.63.89-1.53,1.42-2.5,1.8-3.01,1.19-6.07,1.36-9.15.24-.77-.28-1.44-.73-1.94-1.41-.32-.44-.39-.92-.32-1.47,2.47,2.2,5.38,2.45,8.42,2.16,1.73-.16,3.38-.62,4.9-1.49.24-.14.47-.31.7-.46.34.28-.06.42-.12.63Z"/>
  <path class="cls-2" d="M169.27,26.92c-.45,1.06-1.36,1.62-2.31,2.07-2.85,1.32-5.81,1.5-8.84.7-.89-.23-1.7-.67-2.38-1.31-.43-.41-.62-.94-.68-1.52,0-.09-.02-.19.08-.23.09-.05.16.02.23.08,2.84,2.42,6.15,2.35,9.53,1.8,1.18-.19,2.3-.61,3.37-1.18.28-.15.54-.32.78-.53.12-.05.23-.09.22.11Z"/>
  <path class="cls-2" d="M165.58,34.4c-2.91,1.17-5.87,1.38-8.88.42-.89-.28-1.71-.73-2.29-1.52-.18-.25-.31-.51-.32-.82-.06-.21-.1-.43.03-.63,3.37,2.74,7.14,2.58,11.03,1.58,1.11-.29,2.13-.79,3.1-1.44-.33,1.11-1.26,1.62-2.14,2.19-.16.1-.35.11-.51.22Z"/>
  <path class="cls-2" d="M164.31,39.85c-2.91,1.17-5.87,1.35-8.86.41-.97-.31-1.9-.77-2.43-1.75-.06-.11-.13-.22-.15-.34-.06-.27-.21-.66,0-.81.22-.16.37.23.55.37,1.25,1.02,2.73,1.44,4.27,1.64,2.96.38,5.81-.02,8.47-1.47.27-.15.53-.33.81-.51-.03.67-.48,1.13-2.13,2.23-.16.1-.35.11-.51.22Z"/>
  <path class="cls-2" d="M156.18,21.23c1.35,1.44,3.06,1.96,4.84,2.2,2.68.36,5.28,0,7.77-1.1.44-.2.89-.36,1.43-.58-.31.79-.88,1.16-1.44,1.53-1.25.81-2.64,1.23-4.09,1.45-1.93.28-3.85.25-5.72-.36-.89-.29-1.72-.7-2.35-1.44-.4-.47-.53-1.01-.43-1.69Z"/>
</svg>